<svg id="Layer_1" data-name="Layer 1" xmlns="http://www.w3.org/2000/svg" viewBox="0 0 165.59 52.86"><defs><style>.cls-1{fill:#050703;}.cls-2{fill:#009de0;}</style></defs><title>Ergosign_dark_RGB</title><rect class="cls-1" x="115.22" y="3.54" width="11.18" height="2.8" transform="translate(31.91 86.9) rotate(-45.01)"/><rect class="cls-1" x="119.41" y="9.25" width="2.8" height="11.18" transform="translate(24.89 89.77) rotate(-45)"/><polygon class="cls-2" points="115.86 7.91 107.95 0 105.97 1.98 113.88 9.89 105.97 17.8 107.95 19.78 115.86 11.88 117.85 9.89 115.86 7.91"/><path class="cls-1" d="M99.78,52.86a12,12,0,0,1-8.46-3.49l1.87-2.09a9.57,9.57,0,0,0,6.69,3c3.35,0,5.44-1.66,5.44-4.32,0-2.34-1.4-3.67-6-5.32C93.88,38.71,92,37,92,33.32c0-4,3.17-6.44,7.88-6.44a11.27,11.27,0,0,1,7.66,2.7l-1.8,2.2a8.77,8.77,0,0,0-6-2.34c-3.45,0-4.89,1.73-4.89,3.71s.94,3.27,6,5.07c5.58,2,7.3,3.89,7.3,7.63C108.13,49.8,105,52.86,99.78,52.86Z"/><path class="cls-1" d="M114.13,52.46V27.27h2.81V52.46Z"/><path class="cls-1" d="M132.84,52.86c-6.15,0-10.18-5.58-10.18-13s4.21-13,10.29-13a9.24,9.24,0,0,1,8,4l-2.23,1.69c-1.62-2.19-3.13-3.17-5.86-3.17-4.32,0-7.41,4.28-7.41,10.4s3.24,10.47,7.45,10.47,6.51-2.59,6.51-7.52v-.21h-4.53V40h7.27v2.45C142.16,49.37,138.17,52.86,132.84,52.86Z"/><path class="cls-1" d="M163,52.46l-11-17.24c-.54-.86-1.48-2.52-1.8-3.17v20.4h-2.7V27.27h2.73l10.9,17.56c.54.86,1.48,2.52,1.8,3.17V27.27h2.7V52.46Z"/><path class="cls-1" d="M0,52.46V27.27H15.22v2.55H2.81v7.92H10V40.3H2.81v9.61h13v2.56Z"/><path class="cls-1" d="M53.11,52.86c-6.15,0-10.18-5.58-10.18-13s4.21-13,10.29-13a9.24,9.24,0,0,1,8,4L59,32.6c-1.62-2.19-3.13-3.17-5.86-3.17-4.32,0-7.41,4.28-7.41,10.4S49,50.3,53.18,50.3s6.51-2.59,6.51-7.52v-.21H55.16V40h7.27v2.45C62.43,49.37,58.44,52.86,53.11,52.86Z"/><path class="cls-1" d="M77,52.86c-6.26,0-10.4-5.36-10.4-13s4.21-13,10.47-13,10.44,5.36,10.44,13S83.3,52.86,77,52.86Zm0-23.43c-4.35,0-7.56,4.07-7.56,10.4s3.31,10.47,7.7,10.47,7.59-4.07,7.59-10.4S81.39,29.43,77,29.43Z"/><path class="cls-1" d="M23.93,52.46H21.12V27.27h10c4.43,0,7.85,2.27,7.85,7.13,0,3.92-2.34,6.37-5.94,7.13l5.54,10.94H35.3l-1.88-3.74-4.76-9.5h2c3.74,0,5.51-1.55,5.51-4.72s-1.8-4.68-5.15-4.68H23.93Z"/></svg>